<?xml version="1.0" encoding="UTF-8"?>
<svg id="Layer_2" data-name="Layer 2" xmlns="http://www.w3.org/2000/svg" viewBox="0 0 384.68 149.37">
  <defs>
    <style>
      .cls-1 {
        fill: #616061;
      }

      .cls-1, .cls-2, .cls-3, .cls-4 {
        stroke-width: 0px;
      }

      .cls-2 {
        fill: #a7a9ac;
      }

      .cls-3 {
        fill: #046998;
      }

      .cls-4 {
        fill: #0093c8;
      }
    </style>
  </defs>
  <g id="Layer_1-2" data-name="Layer 1">
    <g>
      <path class="cls-1" d="m59.98,111.8c-4.35,0-7.19-1.1-9.91-3.82l2.11-2.11c2.4,2.4,4.63,3.17,7.88,3.17,4.22,0,6.82-1.99,6.82-5.36,0-1.5-.45-2.8-1.38-3.61-.93-.81-1.67-1.06-3.78-1.38l-3.37-.53c-2.27-.37-4.06-1.1-5.32-2.19-1.46-1.3-2.19-3.09-2.19-5.4,0-4.92,3.53-8.17,9.26-8.17,3.7,0,6.13.93,8.61,3.17l-1.99,1.99c-1.79-1.63-3.7-2.48-6.74-2.48-3.86,0-6.09,2.15-6.09,5.36,0,1.42.41,2.56,1.3,3.33s2.4,1.34,3.9,1.58l3.17.49c2.72.41,4.06.97,5.28,2.03,1.58,1.34,2.44,3.33,2.44,5.73,0,5.08-3.98,8.2-9.99,8.2"/>
      <path class="cls-1" d="m86.1,95.39c-.93-.93-2.23-1.46-3.66-1.46s-2.68.53-3.61,1.46c-1.46,1.46-1.62,3.94-1.62,6.17s.16,4.71,1.62,6.17c.93.93,2.19,1.46,3.61,1.46s2.72-.53,3.66-1.46c1.46-1.46,1.58-3.94,1.58-6.17s-.12-4.71-1.58-6.17m2.07,14.14c-1.38,1.38-3.29,2.27-5.73,2.27s-4.35-.89-5.73-2.27c-2.03-2.07-2.44-4.88-2.44-7.96s.41-5.89,2.44-7.96c1.38-1.38,3.29-2.28,5.73-2.28s4.35.89,5.73,2.28c2.03,2.07,2.44,4.87,2.44,7.96s-.41,5.89-2.44,7.96"/>
      <path class="cls-1" d="m108.92,111.55v-2.23c-1.42,1.63-3.41,2.48-5.65,2.48s-3.94-.65-5.16-1.87c-1.42-1.38-2.03-3.29-2.03-5.61v-12.75h2.92v12.31c0,3.53,1.87,5.32,4.87,5.32s5-1.83,5-5.32v-12.31h2.92v19.98h-2.88,0Z"/>
      <path class="cls-1" d="m124.15,111.55c-3.41,0-5.12-2.4-5.12-5.36v-12.27h-2.52v-2.24h2.52v-6.25h2.92v6.25h4.26v2.24h-4.26v12.18c0,1.83.85,2.92,2.72,2.92h1.54v2.52h-2.07,0Z"/>
      <path class="cls-1" d="m144.25,111.55v-12.35c0-3.49-1.87-5.28-4.87-5.28s-5,1.83-5,5.28v12.35h-2.92v-28.92h2.92v11.13c1.46-1.67,3.37-2.44,5.61-2.44,4.51,0,7.19,2.88,7.19,7.39v12.83h-2.93Z"/>
      <path class="cls-1" d="m167.16,111.8c-2.76,0-4.83-.81-6.62-2.6l2.07-2.07c1.06,1.06,2.15,1.91,4.55,1.91,3.78,0,5.93-2.4,5.93-6.66v-19.74h3.09v20.15c0,5.56-3.74,9.02-9.02,9.02"/>
      <path class="cls-1" d="m194.81,96.81c-.77-1.83-2.56-3.01-4.67-3.01s-3.9,1.18-4.67,3.01c-.45,1.1-.53,1.71-.61,3.33h10.56c-.08-1.63-.16-2.23-.61-3.33m-9.95,5.52c0,4.39,2.07,6.9,5.89,6.9,2.31,0,3.65-.69,5.24-2.27l1.99,1.75c-2.03,2.03-3.9,3.09-7.31,3.09-5.28,0-8.73-3.17-8.73-10.24,0-6.46,3.13-10.24,8.2-10.24s8.21,3.74,8.21,9.67v1.34h-13.49Z"/>
      <path class="cls-1" d="m210.89,93.93c-4.35,0-5.04,3.74-5.04,7.63s.69,7.64,5.04,7.64,5-3.74,5-7.64-.65-7.63-5-7.63m5.04,17.63v-2.4c-1.62,2.11-3.49,2.64-5.69,2.64-2.03,0-3.82-.69-4.87-1.75-2.03-2.03-2.44-5.36-2.44-8.49s.41-6.46,2.44-8.49c1.06-1.06,2.84-1.75,4.87-1.75,2.19,0,4.02.49,5.64,2.56v-11.25h2.92v28.92h-2.88,0Z"/>
      <path class="cls-1" d="m232.46,93.93c-4.35,0-5.04,3.74-5.04,7.63s.69,7.64,5.04,7.64,5-3.74,5-7.64-.65-7.63-5-7.63m5.04,17.63v-2.4c-1.62,2.11-3.49,2.64-5.69,2.64-2.03,0-3.82-.69-4.87-1.75-2.03-2.03-2.44-5.36-2.44-8.49s.41-6.46,2.44-8.49c1.06-1.06,2.84-1.75,4.87-1.75,2.19,0,4.02.49,5.64,2.56v-11.25h2.92v28.92h-2.88,0Z"/>
      <path class="cls-1" d="m258.45,102.34h-5.6c-3.01,0-4.47,1.22-4.47,3.53s1.42,3.41,4.59,3.41c1.71,0,3.21-.12,4.47-1.34.69-.65,1.01-1.79,1.01-3.45v-2.15Zm0,9.22v-1.91c-1.63,1.63-3.09,2.15-5.77,2.15s-4.39-.53-5.64-1.83c-.97-.97-1.5-2.48-1.5-4.06,0-3.49,2.44-5.77,6.91-5.77h6.01v-1.91c0-2.92-1.46-4.39-5.12-4.39-2.56,0-3.86.61-5.04,2.27l-1.99-1.83c1.79-2.32,3.82-2.96,7.07-2.96,5.36,0,8,2.31,8,6.66v13.57h-2.93Z"/>
      <path class="cls-1" d="m280.71,111.55v-12.35c0-3.49-1.87-5.28-4.87-5.28s-5,1.83-5,5.28v12.35h-2.92v-28.92h2.92v11.13c1.46-1.67,3.37-2.44,5.6-2.44,4.51,0,7.19,2.88,7.19,7.39v12.83h-2.92Z"/>
    </g>
    <polygon class="cls-1" points="318.68 111.55 303.33 88.36 303.33 111.55 300.24 111.55 300.24 82.64 303.17 82.64 318.52 105.75 318.52 82.64 321.6 82.64 321.6 111.55 318.68 111.55"/>
    <g>
      <path class="cls-1" d="m339.64,95.39c-.93-.93-2.23-1.46-3.66-1.46s-2.68.53-3.61,1.46c-1.46,1.46-1.62,3.94-1.62,6.17s.16,4.71,1.62,6.17c.93.93,2.19,1.46,3.61,1.46s2.72-.53,3.66-1.46c1.46-1.46,1.58-3.94,1.58-6.17s-.12-4.71-1.58-6.17m2.07,14.14c-1.38,1.38-3.29,2.27-5.73,2.27s-4.35-.89-5.72-2.27c-2.03-2.07-2.44-4.88-2.44-7.96s.41-5.89,2.44-7.96c1.38-1.38,3.29-2.28,5.72-2.28s4.35.89,5.73,2.28c2.03,2.07,2.44,4.87,2.44,7.96s-.41,5.89-2.44,7.96"/>
      <path class="cls-1" d="m360.59,95.39c-.93-.93-2.23-1.46-3.66-1.46s-2.68.53-3.61,1.46c-1.46,1.46-1.62,3.94-1.62,6.17s.16,4.71,1.62,6.17c.93.93,2.19,1.46,3.61,1.46s2.72-.53,3.66-1.46c1.46-1.46,1.58-3.94,1.58-6.17s-.12-4.71-1.58-6.17m2.07,14.14c-1.38,1.38-3.29,2.27-5.73,2.27s-4.35-.89-5.72-2.27c-2.03-2.07-2.44-4.88-2.44-7.96s.41-5.89,2.44-7.96c1.38-1.38,3.29-2.28,5.72-2.28s4.35.89,5.73,2.28c2.03,2.07,2.44,4.87,2.44,7.96s-.41,5.89-2.44,7.96"/>
      <path class="cls-1" d="m381.95,95.39c-1.1-1.1-1.91-1.46-3.45-1.46-2.93,0-4.79,2.31-4.79,5.36v12.26h-2.92v-19.98h2.92v2.44c1.1-1.67,3.29-2.68,5.61-2.68,1.91,0,3.37.44,4.79,1.87l-2.15,2.19h0Z"/>
    </g>
    <rect class="cls-4" x="38.29" y=".28" width="7" height="8.6" transform="translate(-.24 3.54) rotate(-4.84)"/>
    <rect class="cls-4" x="18.47" y="7.36" width="7" height="8.6" transform="translate(-2.72 14.64) rotate(-34.84)"/>
    <rect class="cls-4" x="4.86" y="23.41" width="7" height="8.6" transform="translate(-20.27 23.5) rotate(-64.84)"/>
    <rect class="cls-4" x=".28" y="44.88" width="8.6" height="7" transform="translate(-4.07 .56) rotate(-4.84)"/>
    <rect class="cls-4" x="7.36" y="64.69" width="8.6" height="7" transform="translate(-36.85 18.87) rotate(-34.82)"/>
    <rect class="cls-4" x="23.4" y="78.32" width="8.6" height="7" transform="translate(-58.13 72.07) rotate(-64.82)"/>
    <rect class="cls-4" x="74.19" y="18.47" width="8.6" height="7" transform="translate(1.51 48.75) rotate(-34.82)"/>
    <rect class="cls-4" x="58.15" y="4.87" width="8.6" height="7" transform="translate(28.28 61.31) rotate(-64.8)"/>
    <rect class="cls-4" x="31.78" y="11" width="5.58" height="6.86" transform="translate(-2.82 12.11) rotate(-19.1)"/>
    <rect class="cls-4" x="17.86" y="20.39" width="5.58" height="6.86" transform="translate(-10.88 23.83) rotate(-49.09)"/>
    <rect class="cls-4" x="10.5" y="35.45" width="5.58" height="6.86" transform="translate(-27.41 44.58) rotate(-79.1)"/>
    <rect class="cls-4" x="11.01" y="52.78" width="6.86" height="5.58" transform="translate(-17.39 7.79) rotate(-19.1)"/>
    <rect class="cls-4" x="20.36" y="66.71" width="6.86" height="5.58" transform="translate(-44.31 41.95) rotate(-49.08)"/>
    <rect class="cls-4" x="62.93" y="17.87" width="6.86" height="5.58" transform="translate(7.28 57.27) rotate(-49.08)"/>
    <rect class="cls-4" x="47.86" y="10.49" width="6.86" height="5.58" transform="translate(28.52 61.12) rotate(-79.06)"/>
    <rect class="cls-3" x="41.66" y="16.06" width="4.52" height="5.56" transform="translate(-.85 2.12) rotate(-2.74)"/>
    <rect class="cls-3" x="28.68" y="20.17" width="4.52" height="5.56" transform="translate(-7.5 20.38) rotate(-32.74)"/>
    <rect class="cls-3" x="19.52" y="30.21" width="4.52" height="5.56" transform="translate(-17.52 37.24) rotate(-62.74)"/>
    <rect class="cls-3" x="16.09" y="43.99" width="5.56" height="4.52" transform="translate(-2.19 .95) rotate(-2.74)"/>
    <rect class="cls-3" x="20.16" y="56.97" width="5.56" height="4.52" transform="translate(-28.37 21.79) rotate(-32.71)"/>
    <rect class="cls-3" x="30.19" y="66.11" width="5.56" height="4.52" transform="translate(-42.91 66.35) rotate(-62.73)"/>
    <rect class="cls-3" x="64.42" y="28.7" width="5.56" height="4.52" transform="translate(-6.07 41.22) rotate(-32.71)"/>
    <rect class="cls-3" x="54.38" y="19.5" width="5.56" height="4.52" transform="translate(11.61 62.58) rotate(-62.71)"/>
    <rect class="cls-3" x="37.24" y="22.81" width="3.61" height="4.43" transform="translate(-5.59 12.45) rotate(-16.92)"/>
    <rect class="cls-3" x="28.02" y="28.52" width="3.61" height="4.43" transform="translate(-12.99 31.53) rotate(-46.92)"/>
    <rect class="cls-3" x="22.88" y="38.05" width="3.61" height="4.43" transform="translate(-20.12 55.21) rotate(-76.93)"/>
    <rect class="cls-3" x="22.83" y="49.3" width="4.43" height="3.61" transform="translate(-13.8 9.51) rotate(-16.93)"/>
    <rect class="cls-3" x="28.51" y="58.53" width="4.43" height="3.61" transform="translate(-34.33 41.56) rotate(-46.91)"/>
    <rect class="cls-3" x="57.2" y="28.02" width="4.44" height="3.61" transform="translate(-2.96 52.84) rotate(-46.91)"/>
    <rect class="cls-3" x="47.65" y="22.91" width="4.43" height="3.61" transform="translate(14.49 67.68) rotate(-76.9)"/>
    <rect class="cls-2" x="80.71" y="121.23" width=".96" height="1.15"/>
    <g>
      <path class="cls-2" d="m56.7,130.03c-1.22,0-1.82-.78-1.82-2.42,0-1.31.51-2.22,1.82-2.22s1.8.91,1.8,2.22c0,1.64-.6,2.42-1.8,2.42m24.03-3.29c0,1.22-.29,1.86-1.42,1.86h-5.34c.29-.33.36-.85.36-1.44v-3.8h-.95v3.47c0,1.15-.25,1.76-1.36,1.76h-1.76c.29-.33.36-.85.36-1.44v-3.8h-.95v3.47c0,1.15-.25,1.76-1.36,1.76h-1.78c.29-.33.36-.85.36-1.44v-3.8h-.95v3.47c0,1.15-.25,1.76-1.36,1.76h-5.12c.05-.29.09-.58.09-.89,0-1.87-1.04-3.15-2.85-3.15s-2.87,1.27-2.87,3.15c0,.31.04.6.09.89h-1.76c-1.15,0-1.4-.69-1.4-1.78v-6.07h-.95v6.65c0,1.27.74,2.16,2,2.16h2.49c.47.8,1.29,1.31,2.4,1.31s1.91-.51,2.38-1.31h20.39c1.27,0,2.2-.8,2.2-2.4v-3.8h-.95v3.41Z"/>
      <path class="cls-2" d="m85.71,128.7c-1,0-1.76-.98-1.76-2.25,0-1.18.69-2.16,1.69-2.16s1.75.98,1.75,2.16c0,1.27-.69,2.25-1.67,2.25m-.02-5.35c-1.56,0-2.75,1.36-2.75,3.09,0,1.82,1.24,3.11,2.75,3.11.78,0,1.38-.25,1.67-.78-.07,1.4-.71,2.07-1.91,2.07v.94c2,0,2.87-1.14,2.87-3.36v-2.04c0-1.78-1.15-3.04-2.64-3.04"/>
    </g>
    <rect class="cls-2" x="94.41" y="121.23" width=".96" height="1.15"/>
    <path class="cls-2" d="m102.08,126.74c0,1.22-.29,1.86-1.42,1.86h-5.29v-5.24h-.95v5.22c0,1.62-.65,2.29-1.93,2.29v.93c1.55,0,2.47-.76,2.76-2.24h5.56c1.27,0,2.2-.8,2.2-2.4v-6.42h-.95v6h.02Z"/>
    <rect class="cls-2" x="109.35" y="130.63" width=".96" height="1.16"/>
    <rect class="cls-2" x="116.22" y="130.63" width=".98" height="1.16"/>
    <rect class="cls-2" x="114.41" y="130.63" width=".96" height="1.16"/>
    <path class="cls-2" d="m125.99,128.72c-1.22,0-1.82-.78-1.82-2.42,0-1.31.51-2.22,1.82-2.22s1.8.91,1.8,2.22c0,1.64-.6,2.42-1.8,2.42m0-5.47c-1.84,0-2.87,1.27-2.87,3.14,0,.85.25,1.64.71,2.2h-6.74c.29-.33.36-.85.36-1.44v-3.8h-.95v3.47c0,1.15-.25,1.76-1.36,1.76h-4.94c.29-.33.36-.85.36-1.44v-3.8h-.95v3.47c0,1.15-.25,1.76-1.36,1.76h-1.05c-1.15,0-1.4-.69-1.4-1.78v-6.07h-.95v6.65c0,1.27.74,2.16,2,2.16h19.14c1.8,0,2.85-1.4,2.85-3.16,0-1.87-1.04-3.14-2.85-3.14"/>
    <rect class="cls-2" x="125.49" y="121.12" width=".96" height="1.15"/>
    <rect class="cls-2" x="141.98" y="130.63" width=".98" height="1.16"/>
    <rect class="cls-2" x="140.16" y="130.63" width=".96" height="1.16"/>
    <rect class="cls-2" x="149.12" y="121.23" width=".96" height="1.15"/>
    <path class="cls-2" d="m134.4,128.6h-1.4c-1.13,0-1.89-.87-1.89-2.15,0-1.18.64-2.16,1.64-2.16,1.09,0,1.67.96,1.67,2.29l-.02,2.02h0Zm21.68-1.86c0,1.22-.29,1.86-1.42,1.86h-4.94c.29-.33.36-.85.36-1.44v-3.8h-.95v3.47c0,1.15-.25,1.76-1.36,1.76h-4.94c.29-.33.36-.85.36-1.44v-3.8h-.95v3.47c0,1.15-.25,1.76-1.36,1.76h-5.52v-2.07c0-1.93-.98-3.17-2.56-3.17s-2.69,1.36-2.69,3.09c0,1.82,1.24,3.11,2.87,3.11h1.29c-.24.87-.84,1.29-1.78,1.29v.94c1.64,0,2.51-.76,2.78-2.24h19.56c1.27,0,2.2-.8,2.2-2.4v-3.8h-.95v3.41Z"/>
    <rect class="cls-2" x="154.03" y="130.63" width=".96" height="1.16"/>
    <rect class="cls-2" x="155.85" y="130.63" width=".98" height="1.16"/>
    <path class="cls-2" d="m159.5,128.58c0,1.62-.65,2.29-1.93,2.29v.93c1.91,0,2.87-1.16,2.87-3.4v-5.04h-.95v5.22h.01Z"/>
    <rect class="cls-2" x="175.04" y="121.12" width=".96" height="1.15"/>
    <path class="cls-2" d="m175.53,128.72c-1.22,0-1.82-.78-1.82-2.42,0-1.31.51-2.22,1.82-2.22s1.8.91,1.8,2.22c0,1.64-.6,2.42-1.8,2.42m0-5.47c-1.84,0-2.87,1.27-2.87,3.14,0,.85.25,1.64.71,2.2h-4.09c-1.93,0-2.89-.98-2.89-3v-1.51h-.95v1.51c0,2.64,1.29,3.96,3.91,3.96h6.18c1.8,0,2.85-1.4,2.85-3.16,0-1.87-1.04-3.14-2.85-3.14"/>
    <rect class="cls-2" x="180.2" y="120.74" width=".95" height="8.82"/>
    <path class="cls-2" d="m180.89,118.01c.29,0,.45.16.49.47l.6-.05c-.13-.58-.55-.93-1.14-.93-.69,0-.98.63-.98,1.16,0,.15.02.31.07.45h-.51v.58h2.56v-.58h-1.42c-.07-.13-.11-.27-.11-.47,0-.42.16-.64.44-.64"/>
    <rect class="cls-2" x="189.11" y="132.87" width=".96" height="1.16"/>
    <path class="cls-2" d="m194.55,123.54v-.84c-2.42,0-3.82,1.36-4.02,4.14h3.6c0,2.47-1.4,4-3.55,4s-3.45-1.44-3.45-3.53l-.02-1.44h-.96v1.27c0,2.6,1.82,4.63,4.44,4.63s4.49-2,4.49-4.63v-1.27h-3.36c.2-1.56,1.35-2.34,2.84-2.34"/>
    <rect class="cls-2" x="190.93" y="132.87" width=".98" height="1.16"/>
    <g>
      <path class="cls-2" d="m197.47,123.36v.91c2.02,0,3.56,1.38,3.56,4.33h-5.05v.96h6.04v-.96c0-3.44-1.91-5.24-4.54-5.24"/>
      <path class="cls-2" d="m215.41,123.54v-.84c-2.42,0-3.82,1.36-4.02,4.14h3.6c0,2.47-1.4,4-3.55,4s-3.46-1.44-3.46-3.53l-.02-1.44h-.96v1.27c0,2.6,1.82,4.63,4.44,4.63s4.49-2,4.49-4.63v-1.27h-3.36c.2-1.56,1.35-2.34,2.84-2.34"/>
    </g>
    <rect class="cls-2" x="211.79" y="132.87" width=".98" height="1.16"/>
    <rect class="cls-2" x="209.98" y="132.87" width=".96" height="1.16"/>
    <rect class="cls-2" x="217.75" y="120.74" width=".95" height="8.82"/>
    <g>
      <path class="cls-2" d="m218.23,131.05c.29,0,.45.17.49.47l.6-.05c-.13-.58-.55-.93-1.15-.93-.69,0-.98.64-.98,1.16,0,.15.02.31.07.45h-.51v.58h2.56v-.58h-1.42c-.07-.13-.11-.27-.11-.47,0-.42.16-.64.44-.64"/>
      <path class="cls-2" d="m223.7,128.3v1.25h1.31v-1.38h-.62c0-.56.13-.96.62-1.16v-.47c-1.02.25-1.31.82-1.31,1.76"/>
      <path class="cls-2" d="m227.84,128.58c0,1.62-.65,2.29-1.93,2.29v.93c1.91,0,2.87-1.16,2.87-3.4v-5.04h-.95v5.22h.01Z"/>
      <path class="cls-2" d="m259.72,130.03c-1.22,0-1.82-.78-1.82-2.42,0-1.31.51-2.22,1.82-2.22s1.82.91,1.82,2.22c0,1.64-.6,2.42-1.82,2.42m-9.98-1.44h-6.8c1.06-2.56,2.78-4.36,4.47-4.36,1.49,0,2.36,1.42,2.36,3.53,0,.27,0,.55-.04.84m9.98-4.04c-1.84,0-2.87,1.27-2.87,3.14,0,.31.04.62.09.89h-6.2c.24-2.8-.62-5.24-3.25-5.24-1.53,0-3.16,1.11-4.2,3.04v-2.38h-.95v2.73c0,1.22-.29,1.86-1.42,1.86h-5.2c0-3.44-1.91-5.24-4.55-5.24v.91c2.02,0,3.57,1.38,3.57,4.33h-5.06v.96h27.65c.47.8,1.27,1.31,2.38,1.31,1.82,0,2.87-1.4,2.87-3.16,0-1.87-1.05-3.14-2.87-3.14"/>
    </g>
    <rect class="cls-2" x="270.94" y="121.23" width=".96" height="1.15"/>
    <rect class="cls-2" x="279.12" y="130.63" width=".98" height="1.16"/>
    <rect class="cls-2" x="277.3" y="130.63" width=".96" height="1.16"/>
    <rect class="cls-2" x="283.59" y="130.63" width=".96" height="1.16"/>
    <g>
      <path class="cls-2" d="m283.81,126.74c0,1.22-.29,1.86-1.42,1.86h-2.42c.29-.33.36-.85.36-1.44v-3.8h-.95v3.47c0,1.15-.25,1.76-1.36,1.76h-2.89c.09-.38.13-.78.13-1.2v-4.04h-.95v3.84c0,2.27-1.02,3.67-2.89,3.67s-2.89-1.4-2.89-3.67v-3.84h-.95v4.04c0,2.55,1.56,4.4,3.84,4.4,1.54,0,2.78-.87,3.38-2.24h7.74c1.27,0,2.2-.8,2.2-2.4v-3.8h-.95v3.38h.02Z"/>
      <path class="cls-2" d="m296.31,124.27h-1.86c-.13-.22-.15-.51-.15-.73,0-.53.27-.8.62-.8s.62.2.69.6l.67-.07c-.16-.71-.67-1.11-1.42-1.11-.8,0-1.33.58-1.33,1.38,0,.22.04.56.11.73h-.69v.69h3.35v-.69h0Z"/>
      <path class="cls-2" d="m298.9,126.74c0,1.22-.29,1.86-1.42,1.86h-3.89c-1.93,0-2.89-.98-2.89-3v-2.24h-.95v2.24c0,2.64,1.29,3.96,3.91,3.96h3.98c1.27,0,2.2-.8,2.2-2.4v-6.42h-.94v6h0Z"/>
    </g>
    <rect class="cls-2" x="309.89" y="121.14" width=".96" height="1.14"/>
    <rect class="cls-2" x="308.11" y="121.14" width=".96" height="1.14"/>
    <rect class="cls-2" x="321.9" y="121.14" width=".96" height="1.14"/>
    <rect class="cls-2" x="320.12" y="121.14" width=".96" height="1.14"/>
    <rect class="cls-2" x="321.03" y="119.67" width=".91" height="1.09"/>
    <g>
      <path class="cls-2" d="m334.76,130.03c-1.22,0-1.82-.78-1.82-2.42,0-1.31.51-2.22,1.82-2.22s1.82.91,1.82,2.22c0,1.64-.6,2.42-1.82,2.42m0-5.47c-1.84,0-2.87,1.27-2.87,3.14,0,.31.04.62.09.89h-6.69c.29-.33.36-.86.36-1.44v-3.8h-.95v3.47c0,1.15-.25,1.76-1.36,1.76h-1.76c.29-.33.36-.86.36-1.44v-3.8h-.95v3.47c0,1.15-.25,1.76-1.36,1.76h-1.78c.29-.33.36-.86.36-1.44v-3.8h-.95v3.47c0,1.15-.25,1.76-1.36,1.76h-5.42c.29-.33.36-.86.36-1.44v-3.8h-.95v3.47c0,1.15-.25,1.76-1.36,1.76h-5.29v-5.24h-.95v5.22c0,1.62-.65,2.29-1.93,2.29v.93c1.54,0,2.47-.76,2.76-2.24h29.23c.47.8,1.27,1.31,2.38,1.31,1.82,0,2.87-1.4,2.87-3.16,0-1.87-1.05-3.14-2.87-3.14"/>
      <path class="cls-2" d="m347.02,121.7c.98,0,1.36.49,1.67,1.27l.98-.13c-.45-1.38-1.51-2.09-2.65-2.09-1.71,0-2.56,1.36-2.56,2.8,0,.71.2,1.31.53,1.8-1.42.36-2.36,1.62-2.36,3.22,0,1.96,1.4,3.22,3.34,3.22h1.71v-.96h-1.71c-1.46,0-2.31-.91-2.31-2.25s.91-2.33,2.31-2.33h3.25v-.96h-3.24c-.38-.62-.53-.93-.53-1.73,0-1.07.51-1.85,1.56-1.85"/>
      <path class="cls-2" d="m353.71,128.7c-1,0-1.76-.98-1.76-2.25,0-1.18.69-2.16,1.69-2.16s1.75.98,1.75,2.16c0,1.27-.69,2.25-1.67,2.25m-.02-5.35c-1.56,0-2.74,1.36-2.74,3.09,0,1.82,1.24,3.11,2.74,3.11.78,0,1.38-.25,1.67-.78-.07,1.4-.71,2.07-1.91,2.07v.94c2,0,2.87-1.14,2.87-3.36v-2.04c0-1.78-1.15-3.04-2.64-3.04"/>
    </g>
    <rect class="cls-2" x="368.98" y="121.14" width=".96" height="1.14"/>
    <rect class="cls-2" x="368.11" y="119.67" width=".91" height="1.09"/>
    <rect class="cls-2" x="367.2" y="121.14" width=".96" height="1.14"/>
    <path class="cls-2" d="m381.83,130.03c-1.22,0-1.82-.78-1.82-2.42,0-1.31.51-2.22,1.82-2.22s1.82.91,1.82,2.22c0,1.64-.6,2.42-1.82,2.42m0-5.47c-1.84,0-2.87,1.27-2.87,3.14,0,.31.04.62.09.89h-6.69c.29-.33.36-.86.36-1.44v-3.8h-.95v3.47c0,1.15-.25,1.76-1.36,1.76h-1.76c.29-.33.37-.86.37-1.44v-3.8h-.95v3.47c0,1.15-.25,1.76-1.36,1.76h-1.78c.29-.33.36-.86.36-1.44v-3.8h-.95v3.47c0,1.15-.25,1.76-1.36,1.76h-3.24v-5.24h-.95v5.22c0,1.62-.65,2.29-1.93,2.29v.93c1.54,0,2.47-.76,2.76-2.24h19.81c.47.8,1.27,1.31,2.38,1.31,1.82,0,2.87-1.4,2.87-3.16,0-1.87-1.05-3.14-2.87-3.14"/>
    <rect class="cls-1" x="59.01" y="46.45" width="2.98" height="3.31"/>
    <rect class="cls-1" x="53.81" y="46.45" width="3.03" height="3.31"/>
    <path class="cls-1" d="m58.02,66.59c-2.98,0-4.49-2.03-4.49-5.91,0-3.4,1.32-5.58,4.49-5.58s4.49,2.18,4.49,5.58c0,3.88-1.56,5.91-4.49,5.91m0-14.09c-4.87,0-7.85,3.31-7.85,8.32,0,4.73,2.98,8.37,7.85,8.37s7.85-3.64,7.85-8.37c0-5.01-3.03-8.32-7.85-8.32"/>
    <rect class="cls-1" x="134.09" y="71.98" width="3.03" height="3.31"/>
    <path class="cls-1" d="m135.04,53.26c-3.59,0-6.52,1.61-8.65,3.78l1.94,2.36c1.75-1.99,3.97-3.12,6.62-3.12,5.48,0,8.42,3.17,8.42,9.79h-58.87c-.14-8.56-5.34-13.1-12.29-13.1v2.88c5.25,0,9.08,3.64,9.08,10.21h-12.91v3.12h78.11v-3.78c0-7.75-4.3-12.15-11.44-12.15"/>
    <rect class="cls-1" x="172.63" y="71.98" width="3.03" height="3.31"/>
    <path class="cls-1" d="m184.07,61.39c0,3.07-.71,4.68-3.64,4.68h-10.07c-4.87,0-7.42-2.36-7.42-7.47v-5.53h-3.12v5.53c0,6.85,3.55,10.59,10.5,10.59h10.73c3.78,0,6.15-2.46,6.15-6.62v-9.5h-3.12v8.32h0Z"/>
    <rect class="cls-1" x="235.89" y="47.2" width="3.03" height="3.26"/>
    <path class="cls-1" d="m201.61,66.07h-3.45c-2.65,0-4.4-2.03-4.4-5.06s1.51-5.15,3.88-5.15c2.55,0,4.02,2.27,4.02,5.44l-.05,4.77Zm80.14-12.81c-3.59,0-6.52,1.61-8.65,3.78l1.94,2.36c1.75-1.99,3.97-3.12,6.62-3.12,5.48,0,8.42,3.17,8.42,9.79h-51.92c.61-.85.8-2.13.8-3.5v-9.5h-3.12v8.51c0,2.89-.71,4.49-3.59,4.49h-27.47v-4.92c0-4.96-2.79-8.23-7-8.23s-7.28,3.45-7.28,8.08,3.31,8.18,7.61,8.18h3.31c-.66,1.99-2.22,2.98-4.54,2.98v2.84c4.4,0,6.9-1.99,7.66-5.82h88.65v-3.78c0-7.75-4.3-12.15-11.44-12.15"/>
    <rect class="cls-1" x="280.81" y="71.98" width="3.03" height="3.31"/>
    <g>
      <path class="cls-1" d="m309.23,66.26c0,3.97-1.56,5.82-5.01,5.82v2.93c5.44,0,8.13-3.12,8.13-9.31v-12.62h-3.12v13.19h0Z"/>
      <path class="cls-1" d="m326.77,66.07h-3.45c-2.65,0-4.4-2.03-4.4-5.06s1.51-5.15,3.88-5.15c2.55,0,4.02,2.27,4.02,5.44l-.05,4.77Zm54.19-13v8.32c0,3.07-.76,4.68-3.69,4.68h-47.33v-4.92c0-4.96-2.79-8.23-7-8.23s-7.28,3.45-7.28,8.08,3.31,8.18,7.61,8.18h3.31c-.66,1.99-2.22,2.98-4.54,2.98v2.84c4.4,0,6.9-1.99,7.66-5.82h48.18c3.83,0,6.19-2.46,6.19-6.62v-9.5h-3.12.01Z"/>
    </g>
    <rect class="cls-1" x="380.95" y="47.2" width="3.03" height="3.26"/>
    <path class="cls-2" d="m53.38,140.37l-1.61,4.53h3.21l-1.59-4.53h-.01Zm2.54,7.27l-.69-1.94h-3.75l-.69,1.94h-.98l3.16-8.58h.77l3.14,8.58h-.98.02Z"/>
    <polygon class="cls-2" points="67.96 147.64 67.96 141.12 65.62 146.29 64.83 146.29 62.45 141.12 62.45 147.64 61.53 147.64 61.53 139.06 62.45 139.06 65.24 145.14 67.96 139.06 68.88 139.06 68.88 147.64 67.96 147.64"/>
    <path class="cls-2" d="m73.94,140.37l-1.61,4.53h3.21l-1.59-4.53h-.01Zm2.54,7.27l-.69-1.94h-3.75l-.69,1.94h-.98l3.16-8.58h.77l3.15,8.58h-.98,0Z"/>
    <g>
      <path class="cls-2" d="m83.93,146.3c-.14.3-.34.56-.6.76-.26.21-.57.37-.94.48-.37.11-.77.17-1.21.17-.64,0-1.19-.09-1.65-.26-.46-.18-.89-.47-1.29-.87l.63-.63c.35.36.71.6,1.07.74.36.14.78.2,1.27.2.63,0,1.12-.14,1.48-.42.36-.28.54-.67.54-1.17,0-.22-.03-.43-.1-.61-.07-.19-.17-.34-.31-.46-.14-.12-.28-.21-.43-.26-.15-.05-.38-.1-.69-.15l-1-.16c-.68-.11-1.21-.33-1.58-.65-.43-.38-.65-.92-.65-1.6,0-.36.06-.69.19-.99s.31-.56.55-.76c.24-.21.53-.37.86-.49.34-.12.72-.17,1.15-.17.55,0,1.02.07,1.41.22s.78.39,1.14.72l-.59.59c-.27-.24-.55-.42-.86-.55-.31-.13-.69-.19-1.14-.19-.58,0-1.02.14-1.34.43-.31.29-.47.67-.47,1.16,0,.43.13.76.39.99.14.11.31.21.51.29.2.08.42.14.64.18l.94.15c.2.03.38.07.54.1.16.04.3.08.42.13.12.05.23.1.33.16.1.06.19.13.28.21.48.41.72.98.72,1.7,0,.38-.07.72-.21,1.02"/>
      <path class="cls-2" d="m91.2,142.46c0-.26-.02-.51-.05-.75s-.09-.46-.17-.67c-.08-.21-.19-.39-.34-.54-.23-.23-.48-.4-.76-.49s-.59-.14-.93-.14h-1.87v6.94h1.87c.34,0,.65-.04.93-.14.28-.09.53-.26.76-.49.15-.15.26-.34.34-.57s.14-.47.17-.74c.03-.26.05-.53.05-.81v-1.61m.92,1.73c0,.33-.03.65-.08.97s-.13.62-.25.91-.29.55-.51.77c-.26.26-.57.45-.94.59-.37.14-.78.21-1.23.21h-2.94v-8.58h2.94c.45,0,.86.07,1.23.21.37.14.68.33.94.59.23.23.4.47.51.74.12.27.2.55.25.84.05.3.07.59.08.91v1.85"/>
    </g>
    <path class="cls-2" d="m96.74,140.37l-1.61,4.53h3.21l-1.59-4.53h-.01Zm2.54,7.27l-.69-1.94h-3.75l-.69,1.94h-.98l3.16-8.58h.77l3.15,8.58h-.98.01Z"/>
    <path class="cls-2" d="m106.21,140.27c-.32-.26-.73-.39-1.23-.39h-2.29v3.14h2.29c.51,0,.92-.13,1.23-.38.32-.26.48-.65.48-1.18s-.16-.93-.48-1.19m.49,7.37l-1.95-3.81h-2.06v3.81h-.92v-8.58h3.29c.37,0,.71.05,1.02.16.31.11.58.27.81.47.22.21.4.46.52.75.13.3.19.63.19,1,0,.63-.17,1.14-.52,1.54-.35.4-.8.65-1.35.77l2.04,3.89h-1.07,0Z"/>
    <polygon class="cls-2" points="109.61 146.58 109.61 149.37 110.67 148.42 110.67 146.58 109.61 146.58"/>
    <polygon class="cls-2" points="116.22 147.64 116.22 139.06 121.54 139.06 121.54 139.88 117.13 139.88 117.13 142.9 120.89 142.9 120.89 143.72 117.13 143.72 117.13 146.82 121.54 146.82 121.54 147.64 116.22 147.64"/>
    <path class="cls-2" d="m128.6,142.46c0-.26-.02-.51-.05-.75s-.09-.46-.17-.67c-.08-.21-.19-.39-.34-.54-.23-.23-.48-.4-.76-.49s-.59-.14-.93-.14h-1.87v6.94h1.87c.34,0,.65-.04.93-.14.28-.09.53-.26.76-.49.15-.15.26-.34.34-.57s.14-.47.17-.74c.03-.26.05-.53.05-.81v-1.61m.92,1.73c0,.33-.03.65-.08.97s-.13.62-.25.91-.29.55-.51.77c-.26.26-.57.45-.94.59-.37.14-.78.21-1.23.21h-2.94v-8.58h2.94c.45,0,.86.07,1.23.21.37.14.68.33.94.59.23.23.4.47.51.74s.2.55.25.84c.05.3.07.59.08.91v1.85"/>
    <polygon class="cls-2" points="132.71 139.88 132.71 143.04 136.47 143.04 136.47 143.86 132.71 143.86 132.71 147.64 131.8 147.64 131.8 139.06 137.12 139.06 137.12 139.88 132.71 139.88"/>
    <path class="cls-2" d="m146.47,140.27c-.32-.26-.73-.39-1.23-.39h-2.29v3.14h2.29c.51,0,.92-.13,1.23-.38.32-.26.48-.65.48-1.18s-.16-.93-.48-1.19m.49,7.37l-1.95-3.81h-2.06v3.81h-.91v-8.58h3.29c.37,0,.71.05,1.02.16.31.11.58.27.81.47.22.21.4.46.52.75.13.3.19.63.19,1,0,.63-.17,1.14-.52,1.54-.35.4-.8.65-1.35.77l2.04,3.89h-1.08Z"/>
    <polygon class="cls-2" points="150.05 147.64 150.05 139.06 155.38 139.06 155.38 139.88 150.97 139.88 150.97 142.9 154.73 142.9 154.73 143.72 150.97 143.72 150.97 146.82 155.38 146.82 155.38 147.64 150.05 147.64"/>
    <polygon class="cls-2" points="162.88 147.64 158.32 140.76 158.32 147.64 157.4 147.64 157.4 139.06 158.27 139.06 162.83 145.92 162.83 139.06 163.74 139.06 163.74 147.64 162.88 147.64"/>
    <polygon class="cls-2" points="166.35 147.64 166.35 139.06 171.67 139.06 171.67 139.88 167.26 139.88 167.26 142.9 171.02 142.9 171.02 143.72 167.26 143.72 167.26 146.82 171.67 146.82 171.67 147.64 166.35 147.64"/>
    <polygon class="cls-2" points="180.36 147.64 179.51 147.64 177.6 140.77 175.7 147.64 174.84 147.64 172.65 139.06 173.63 139.06 175.3 145.98 177.19 139.06 178.01 139.06 179.9 145.98 181.58 139.06 182.56 139.06 180.36 147.64"/>
    <path class="cls-2" d="m186.44,140.37l-1.61,4.53h3.21l-1.59-4.53h-.01Zm2.54,7.27l-.69-1.94h-3.75l-.69,1.94h-.98l3.16-8.58h.77l3.15,8.58h-.98.01Z"/>
    <path class="cls-2" d="m195.97,144.1c-.31-.28-.73-.42-1.26-.42h-2.34v3.14h2.34c.53,0,.95-.14,1.26-.43.31-.29.46-.67.46-1.15s-.15-.86-.46-1.14m.2-3.4c-.09-.18-.21-.34-.36-.46s-.32-.21-.53-.27c-.2-.06-.43-.09-.67-.09h-2.24v2.98h2.24c.24,0,.46-.03.67-.09.21-.06.38-.15.53-.27s.27-.27.36-.46.13-.41.13-.67-.04-.48-.13-.66m.99,5.59c-.12.3-.3.55-.52.75-.23.2-.49.35-.81.45-.31.1-.66.15-1.04.15h-3.34v-8.58h3.23c.37,0,.71.05,1.03.16.31.1.58.25.8.45s.39.44.52.72c.12.28.19.6.19.97,0,.46-.12.85-.36,1.18s-.54.56-.9.7c.41.15.74.4,1.01.75.26.35.39.78.39,1.29,0,.39-.06.73-.19,1.02"/>
    <polygon class="cls-2" points="199.63 147.64 199.63 139.06 200.55 139.06 200.55 146.82 204.93 146.82 204.93 147.64 199.63 147.64"/>
    <polygon class="cls-2" points="206.66 147.64 206.66 139.06 211.98 139.06 211.98 139.88 207.57 139.88 207.57 142.9 211.33 142.9 211.33 143.72 207.57 143.72 207.57 146.82 211.98 146.82 211.98 147.64 206.66 147.64"/>
    <path class="cls-2" d="m218.97,146.3c-.14.3-.34.56-.6.76-.26.21-.57.37-.94.48-.36.11-.77.17-1.21.17-.64,0-1.19-.09-1.65-.26-.46-.18-.89-.47-1.29-.87l.63-.63c.35.36.71.6,1.07.74.36.14.78.2,1.27.2.63,0,1.12-.14,1.48-.42.36-.28.54-.67.54-1.17,0-.22-.04-.43-.1-.61-.07-.19-.17-.34-.31-.46-.14-.12-.28-.21-.43-.26-.15-.05-.38-.1-.69-.15l-1-.16c-.68-.11-1.21-.33-1.58-.65-.43-.38-.65-.92-.65-1.6,0-.36.06-.69.19-.99s.31-.56.55-.76c.24-.21.52-.37.86-.49s.72-.17,1.14-.17c.55,0,1.02.07,1.41.22s.78.39,1.14.72l-.59.59c-.27-.24-.55-.42-.86-.55-.3-.13-.69-.19-1.14-.19-.58,0-1.02.14-1.34.43-.31.29-.47.67-.47,1.16,0,.43.13.76.39.99.14.11.31.21.51.29.21.08.42.14.65.18l.94.15c.2.03.38.07.53.1.16.04.3.08.42.13.12.05.23.1.33.16.1.06.19.13.28.21.48.41.72.98.72,1.7,0,.38-.07.72-.21,1.02"/>
    <path class="cls-2" d="m226.79,140.37l-1.62,4.53h3.21l-1.59-4.53Zm2.54,7.27l-.69-1.94h-3.75l-.69,1.94h-.98l3.16-8.58h.77l3.15,8.58h-.98.01Z"/>
    <polygon class="cls-2" points="237.29 147.64 232.73 140.76 232.73 147.64 231.82 147.64 231.82 139.06 232.69 139.06 237.24 145.92 237.24 139.06 238.16 139.06 238.16 147.64 237.29 147.64"/>
    <path class="cls-2" d="m245.79,142.46c0-.26-.02-.51-.05-.75s-.09-.46-.17-.67c-.08-.21-.19-.39-.34-.54-.23-.23-.48-.4-.76-.49s-.59-.14-.93-.14h-1.87v6.94h1.87c.34,0,.65-.04.93-.14.28-.09.53-.26.76-.49.14-.15.26-.34.34-.57s.14-.47.17-.74c.03-.26.05-.53.05-.81v-1.61m.91,1.73c0,.33-.03.65-.08.97s-.13.62-.25.91-.29.55-.51.77c-.26.26-.57.45-.94.59-.37.14-.78.21-1.23.21h-2.94v-8.58h2.94c.45,0,.86.07,1.23.21.37.14.68.33.94.59.22.23.4.47.51.74.12.27.2.55.25.84.05.3.08.59.08.91v1.85"/>
    <polygon class="cls-2" points="257.58 147.64 253.03 140.76 253.03 147.64 252.11 147.64 252.11 139.06 252.98 139.06 257.53 145.92 257.53 139.06 258.45 139.06 258.45 147.64 257.58 147.64"/>
    <polygon class="cls-2" points="261.05 147.64 261.05 139.06 266.38 139.06 266.38 139.88 261.97 139.88 261.97 142.9 265.73 142.9 265.73 143.72 261.97 143.72 261.97 146.82 266.38 146.82 266.38 147.64 261.05 147.64"/>
    <path class="cls-2" d="m273.36,146.3c-.14.3-.34.56-.6.76-.26.21-.57.37-.94.48-.36.11-.77.17-1.21.17-.64,0-1.19-.09-1.65-.26-.46-.18-.89-.47-1.29-.87l.63-.63c.35.36.71.6,1.07.74.36.14.78.2,1.27.2.63,0,1.12-.14,1.48-.42.36-.28.54-.67.54-1.17,0-.22-.04-.43-.1-.61-.07-.19-.17-.34-.31-.46-.14-.12-.28-.21-.43-.26-.15-.05-.38-.1-.69-.15l-1-.16c-.68-.11-1.21-.33-1.58-.65-.43-.38-.65-.92-.65-1.6,0-.36.06-.69.19-.99s.31-.56.55-.76c.24-.21.52-.37.86-.49s.72-.17,1.14-.17c.55,0,1.02.07,1.41.22s.78.39,1.14.72l-.59.59c-.27-.24-.55-.42-.86-.55-.3-.13-.69-.19-1.14-.19-.58,0-1.02.14-1.34.43-.31.29-.47.67-.47,1.16,0,.43.13.76.39.99.14.11.31.21.51.29.21.08.42.14.65.18l.94.15c.2.03.38.07.53.1.16.04.3.08.42.13.12.05.23.1.33.16.1.06.19.13.28.21.48.41.72.98.72,1.7,0,.38-.07.72-.21,1.02"/>
    <polygon class="cls-2" points="282.05 147.64 282.05 141.12 279.7 146.29 278.91 146.29 276.53 141.12 276.53 147.64 275.61 147.64 275.61 139.06 276.53 139.06 279.32 145.14 282.05 139.06 282.96 139.06 282.96 147.64 282.05 147.64"/>
    <path class="cls-2" d="m288.02,140.37l-1.62,4.53h3.21l-1.59-4.53Zm2.54,7.27l-.69-1.94h-3.75l-.69,1.94h-.98l3.16-8.58h.77l3.15,8.58h-.98.01Z"/>
    <g>
      <path class="cls-2" d="m299.64,146.15c-.13.33-.32.61-.55.84-.24.23-.52.41-.84.53-.33.13-.69.19-1.08.19s-.77-.06-1.09-.19c-.32-.12-.61-.32-.87-.58l.61-.61c.15.16.33.3.53.4.2.11.47.16.82.16.56,0,1-.17,1.3-.51.31-.34.46-.83.46-1.46v-5.86h.91v5.98c0,.41-.07.78-.2,1.11"/>
      <path class="cls-2" d="m307.07,142.21c-.01-.31-.04-.57-.08-.79-.04-.22-.1-.4-.18-.56s-.19-.3-.32-.44c-.19-.19-.41-.34-.67-.45-.26-.11-.53-.16-.81-.16s-.55.05-.81.16c-.26.11-.48.26-.67.45-.14.14-.25.28-.33.44s-.14.34-.18.56c-.04.22-.07.48-.08.79-.01.31-.02.69-.02,1.14s0,.83.02,1.14c.01.31.04.57.08.79.04.22.1.4.18.56s.19.3.33.44c.18.19.41.34.67.45.26.11.53.16.81.16s.55-.05.81-.16c.26-.11.49-.26.67-.45.14-.14.25-.28.32-.44.08-.16.14-.34.18-.56.04-.22.07-.48.08-.79.01-.31.02-.69.02-1.14s0-.83-.02-1.14m.92,2.34c0,.34-.04.65-.09.91-.05.27-.13.51-.24.73s-.26.42-.46.63c-.29.29-.62.51-.99.66s-.77.23-1.21.23c-.87,0-1.6-.3-2.19-.89-.2-.2-.35-.41-.46-.63s-.19-.46-.24-.73c-.05-.27-.08-.57-.09-.91,0-.34-.01-.74-.01-1.2s0-.86.01-1.2c0-.34.04-.65.09-.92.05-.27.13-.51.24-.73s.26-.42.46-.63c.6-.59,1.33-.89,2.19-.89s1.6.3,2.19.89c.2.2.36.41.46.63.11.22.19.46.24.73.05.27.08.57.09.92,0,.34.01.74.01,1.2s0,.86-.01,1.2"/>
    </g>
    <rect class="cls-2" x="310.28" y="139.06" width=".92" height="8.58"/>
    <polygon class="cls-2" points="319.27 147.64 314.71 140.76 314.71 147.64 313.8 147.64 313.8 139.06 314.67 139.06 319.22 145.92 319.22 139.06 320.14 139.06 320.14 147.64 319.27 147.64"/>
    <polygon class="cls-2" points="325.26 139.88 325.26 147.64 324.34 147.64 324.34 139.88 321.86 139.88 321.86 139.06 327.74 139.06 327.74 139.88 325.26 139.88"/>
    <polygon class="cls-2" points="335.01 147.64 334.26 147.64 331.44 139.06 332.41 139.06 334.63 146 336.86 139.06 337.83 139.06 335.01 147.64"/>
    <polygon class="cls-2" points="339.29 147.64 339.29 139.06 344.61 139.06 344.61 139.88 340.2 139.88 340.2 142.9 343.96 142.9 343.96 143.72 340.2 143.72 340.2 146.82 344.61 146.82 344.61 147.64 339.29 147.64"/>
    <polygon class="cls-2" points="352.11 147.64 347.55 140.76 347.55 147.64 346.64 147.64 346.64 139.06 347.51 139.06 352.06 145.92 352.06 139.06 352.98 139.06 352.98 147.64 352.11 147.64"/>
    <polygon class="cls-2" points="358.1 139.88 358.1 147.64 357.18 147.64 357.18 139.88 354.7 139.88 354.7 139.06 360.58 139.06 360.58 139.88 358.1 139.88"/>
    <g>
      <path class="cls-2" d="m367.95,145.98c-.15.36-.36.66-.63.92s-.59.46-.95.6c-.37.14-.77.21-1.2.21s-.83-.07-1.2-.21c-.36-.14-.68-.34-.95-.6s-.47-.56-.62-.92-.22-.75-.22-1.18v-5.75h.91v5.68c0,.33.05.63.15.89.1.27.23.49.42.68.18.18.4.33.66.43.26.11.54.16.85.16s.6-.05.86-.16c.26-.1.48-.25.66-.43.18-.19.32-.41.42-.68.1-.26.15-.56.15-.89v-5.68h.91v5.75c0,.42-.07.82-.22,1.18"/>
      <path class="cls-2" d="m375.09,140.27c-.32-.26-.73-.39-1.23-.39h-2.29v3.14h2.29c.51,0,.92-.13,1.23-.38.32-.26.48-.65.48-1.18s-.16-.93-.48-1.19m.49,7.37l-1.95-3.81h-2.06v3.81h-.91v-8.58h3.29c.37,0,.71.05,1.02.16.31.11.58.27.81.47.23.21.4.46.53.75.12.3.19.63.19,1,0,.63-.17,1.14-.52,1.54-.34.4-.8.65-1.35.77l2.04,3.89h-1.09Z"/>
    </g>
    <polygon class="cls-2" points="378.68 147.64 378.68 139.06 384.01 139.06 384.01 139.88 379.6 139.88 379.6 142.9 383.36 142.9 383.36 143.72 379.6 143.72 379.6 146.82 384.01 146.82 384.01 147.64 378.68 147.64"/>
  </g>
</svg>